<svg width="32" height="32" viewBox="0 0 32 32" fill="none" xmlns="http://www.w3.org/2000/svg">
<path d="M17.352 15.5967C19.3433 16.1633 21.064 17.59 21.9853 19.4393C22.98 21.396 23.0607 23.7887 22.1627 25.8053M17.3527 15.3933V8.82267C21.662 10.1507 24.7933 14.4493 24.7253 18.9447C24.7107 21.4353 23.7947 23.9113 22.158 25.7967M22.1567 25.7973C20.879 27.2849 19.2172 28.3928 17.3527 29V22.4293C19.1256 21.853 20.7179 20.8248 21.9727 19.446M14.6473 16.4033C12.656 15.8367 10.9353 14.4093 10.014 12.5607C9.01332 10.6013 8.94799 8.204 9.83666 6.194M14.648 16.606V23.1767C10.3387 21.8487 7.20732 17.55 7.27466 13.0547C7.28999 10.5633 8.20532 8.088 9.84266 6.20267M9.84332 6.20133C11.1211 4.71424 12.7829 3.60682 14.6473 3V9.57067C12.8741 10.1469 11.2816 11.1751 10.0267 12.554" stroke="black" stroke-width="2" stroke-linecap="round" stroke-linejoin="round"/>
</svg>
